<mxfile host="app.diagrams.net" agent="Mozilla/5.0 (Windows NT 10.0; Win64; x64) AppleWebKit/537.36 (KHTML, like Gecko) Chrome/131.0.0.0 Safari/537.36" version="26.0.6">
  <diagram id="C5RBs43oDa-KdzZeNtuy" name="Page-1">
    <mxGraphModel dx="1728" dy="-247" grid="1" gridSize="10" guides="1" tooltips="1" connect="1" arrows="1" fold="1" page="1" pageScale="1" pageWidth="827" pageHeight="1169" math="0" shadow="0">
      <root>
        <mxCell id="WIyWlLk6GJQsqaUBKTNV-0" />
        <mxCell id="WIyWlLk6GJQsqaUBKTNV-1" parent="WIyWlLk6GJQsqaUBKTNV-0" />
        <mxCell id="NUZIofhIhQPIZliGserU-1" value="" style="edgeStyle=orthogonalEdgeStyle;rounded=0;orthogonalLoop=1;jettySize=auto;html=1;" edge="1" parent="WIyWlLk6GJQsqaUBKTNV-1" source="_w8EJULEX6LvG8ccInfv-1" target="NUZIofhIhQPIZliGserU-0">
          <mxGeometry relative="1" as="geometry" />
        </mxCell>
        <mxCell id="_w8EJULEX6LvG8ccInfv-1" value="Start" style="ellipse;whiteSpace=wrap;html=1;" parent="WIyWlLk6GJQsqaUBKTNV-1" vertex="1">
          <mxGeometry x="237" y="1980" width="120" height="80" as="geometry" />
        </mxCell>
        <mxCell id="_w8EJULEX6LvG8ccInfv-21" value="" style="edgeStyle=orthogonalEdgeStyle;rounded=0;orthogonalLoop=1;jettySize=auto;html=1;" parent="WIyWlLk6GJQsqaUBKTNV-1" edge="1">
          <mxGeometry relative="1" as="geometry">
            <mxPoint x="297.00000000000045" y="2200" as="targetPoint" />
            <mxPoint x="297" y="2160" as="sourcePoint" />
          </mxGeometry>
        </mxCell>
        <mxCell id="_w8EJULEX6LvG8ccInfv-28" value="" style="edgeStyle=orthogonalEdgeStyle;rounded=0;orthogonalLoop=1;jettySize=auto;html=1;" parent="WIyWlLk6GJQsqaUBKTNV-1" target="_w8EJULEX6LvG8ccInfv-43" edge="1">
          <mxGeometry relative="1" as="geometry">
            <mxPoint x="297.00000000000045" y="2260" as="sourcePoint" />
          </mxGeometry>
        </mxCell>
        <mxCell id="_w8EJULEX6LvG8ccInfv-32" value="" style="edgeStyle=orthogonalEdgeStyle;rounded=0;orthogonalLoop=1;jettySize=auto;html=1;" parent="WIyWlLk6GJQsqaUBKTNV-1" edge="1">
          <mxGeometry relative="1" as="geometry">
            <mxPoint x="553" y="2969" as="sourcePoint" />
            <mxPoint x="553" y="3009" as="targetPoint" />
          </mxGeometry>
        </mxCell>
        <mxCell id="_w8EJULEX6LvG8ccInfv-34" value="" style="edgeStyle=orthogonalEdgeStyle;rounded=0;orthogonalLoop=1;jettySize=auto;html=1;" parent="WIyWlLk6GJQsqaUBKTNV-1" edge="1">
          <mxGeometry relative="1" as="geometry">
            <mxPoint x="553" y="3103" as="targetPoint" />
            <mxPoint x="553" y="3069" as="sourcePoint" />
          </mxGeometry>
        </mxCell>
        <mxCell id="_w8EJULEX6LvG8ccInfv-36" value="" style="edgeStyle=orthogonalEdgeStyle;rounded=0;orthogonalLoop=1;jettySize=auto;html=1;" parent="WIyWlLk6GJQsqaUBKTNV-1" source="_w8EJULEX6LvG8ccInfv-37" edge="1">
          <mxGeometry relative="1" as="geometry">
            <mxPoint x="553" y="2929" as="targetPoint" />
          </mxGeometry>
        </mxCell>
        <mxCell id="_w8EJULEX6LvG8ccInfv-37" value="&quot;Poprawnie dodano osobę&amp;nbsp;&lt;div&gt;o ID &quot; &amp;lt;&amp;lt; person.id &amp;lt;&amp;lt; &quot; do bazy&quot;&lt;/div&gt;" style="shape=parallelogram;perimeter=parallelogramPerimeter;whiteSpace=wrap;html=1;fixedSize=1;" parent="WIyWlLk6GJQsqaUBKTNV-1" vertex="1">
          <mxGeometry x="435" y="2829" width="236" height="60" as="geometry" />
        </mxCell>
        <mxCell id="_w8EJULEX6LvG8ccInfv-38" value="Koniec" style="ellipse;whiteSpace=wrap;html=1;" parent="WIyWlLk6GJQsqaUBKTNV-1" vertex="1">
          <mxGeometry x="493" y="3103" width="120" height="80" as="geometry" />
        </mxCell>
        <mxCell id="_w8EJULEX6LvG8ccInfv-39" style="edgeStyle=orthogonalEdgeStyle;rounded=0;orthogonalLoop=1;jettySize=auto;html=1;entryX=0.5;entryY=0;entryDx=0;entryDy=0;" parent="WIyWlLk6GJQsqaUBKTNV-1" source="_w8EJULEX6LvG8ccInfv-43" edge="1">
          <mxGeometry relative="1" as="geometry">
            <mxPoint x="297.00000000000045" y="2400" as="targetPoint" />
          </mxGeometry>
        </mxCell>
        <mxCell id="_w8EJULEX6LvG8ccInfv-40" value="Tak" style="edgeLabel;html=1;align=center;verticalAlign=middle;resizable=0;points=[];" parent="_w8EJULEX6LvG8ccInfv-39" vertex="1" connectable="0">
          <mxGeometry x="-0.6223" y="1" relative="1" as="geometry">
            <mxPoint x="-2" y="4" as="offset" />
          </mxGeometry>
        </mxCell>
        <mxCell id="_w8EJULEX6LvG8ccInfv-41" value="" style="edgeStyle=orthogonalEdgeStyle;rounded=0;orthogonalLoop=1;jettySize=auto;html=1;" parent="WIyWlLk6GJQsqaUBKTNV-1" source="_w8EJULEX6LvG8ccInfv-43" target="_w8EJULEX6LvG8ccInfv-45" edge="1">
          <mxGeometry relative="1" as="geometry" />
        </mxCell>
        <mxCell id="_w8EJULEX6LvG8ccInfv-42" value="Nie" style="edgeLabel;html=1;align=center;verticalAlign=middle;resizable=0;points=[];" parent="_w8EJULEX6LvG8ccInfv-41" vertex="1" connectable="0">
          <mxGeometry x="-0.0909" relative="1" as="geometry">
            <mxPoint as="offset" />
          </mxGeometry>
        </mxCell>
        <mxCell id="_w8EJULEX6LvG8ccInfv-43" value="Czy plik jest otwarty?" style="rhombus;whiteSpace=wrap;html=1;" parent="WIyWlLk6GJQsqaUBKTNV-1" vertex="1">
          <mxGeometry x="230" y="2290" width="134" height="80" as="geometry" />
        </mxCell>
        <mxCell id="_w8EJULEX6LvG8ccInfv-106" value="" style="edgeStyle=orthogonalEdgeStyle;rounded=0;orthogonalLoop=1;jettySize=auto;html=1;" parent="WIyWlLk6GJQsqaUBKTNV-1" source="_w8EJULEX6LvG8ccInfv-45" target="_w8EJULEX6LvG8ccInfv-105" edge="1">
          <mxGeometry relative="1" as="geometry" />
        </mxCell>
        <mxCell id="_w8EJULEX6LvG8ccInfv-45" value="Wypisanie&amp;nbsp;&quot;Wystąpił&amp;nbsp;&lt;div&gt;problem z plikiem&quot;&lt;/div&gt;" style="shape=parallelogram;perimeter=parallelogramPerimeter;whiteSpace=wrap;html=1;fixedSize=1;" parent="WIyWlLk6GJQsqaUBKTNV-1" vertex="1">
          <mxGeometry x="458" y="2410" width="190" height="60" as="geometry" />
        </mxCell>
        <mxCell id="_w8EJULEX6LvG8ccInfv-83" value="ofstream outfile(&quot;database.txt&quot;, ios::app)" style="shape=process;whiteSpace=wrap;html=1;backgroundOutline=1;" parent="WIyWlLk6GJQsqaUBKTNV-1" vertex="1">
          <mxGeometry x="160.25" y="2200" width="275.5" height="60" as="geometry" />
        </mxCell>
        <mxCell id="_w8EJULEX6LvG8ccInfv-91" value="" style="edgeStyle=orthogonalEdgeStyle;rounded=0;orthogonalLoop=1;jettySize=auto;html=1;exitX=0.437;exitY=1.039;exitDx=0;exitDy=0;exitPerimeter=0;" parent="WIyWlLk6GJQsqaUBKTNV-1" source="fRZr1uh6GntFFwG8jn4M-27" target="_w8EJULEX6LvG8ccInfv-90" edge="1">
          <mxGeometry relative="1" as="geometry">
            <mxPoint x="546" y="2898.9999999999995" as="sourcePoint" />
          </mxGeometry>
        </mxCell>
        <mxCell id="_w8EJULEX6LvG8ccInfv-93" value="" style="edgeStyle=orthogonalEdgeStyle;rounded=0;orthogonalLoop=1;jettySize=auto;html=1;" parent="WIyWlLk6GJQsqaUBKTNV-1" source="_w8EJULEX6LvG8ccInfv-90" target="_w8EJULEX6LvG8ccInfv-92" edge="1">
          <mxGeometry relative="1" as="geometry" />
        </mxCell>
        <mxCell id="_w8EJULEX6LvG8ccInfv-94" value="Tak" style="edgeLabel;html=1;align=center;verticalAlign=middle;resizable=0;points=[];" parent="_w8EJULEX6LvG8ccInfv-93" vertex="1" connectable="0">
          <mxGeometry x="-0.3391" relative="1" as="geometry">
            <mxPoint as="offset" />
          </mxGeometry>
        </mxCell>
        <mxCell id="_w8EJULEX6LvG8ccInfv-90" value="Czy&amp;nbsp;i &amp;lt; 19 &amp;amp;&amp;amp; !person.hobbies&lt;div&gt;[i + 1].empty()?&lt;/div&gt;" style="rhombus;whiteSpace=wrap;html=1;" parent="WIyWlLk6GJQsqaUBKTNV-1" vertex="1">
          <mxGeometry x="192" y="2840" width="194" height="100" as="geometry" />
        </mxCell>
        <mxCell id="fRZr1uh6GntFFwG8jn4M-33" style="edgeStyle=orthogonalEdgeStyle;rounded=0;orthogonalLoop=1;jettySize=auto;html=1;entryX=0.5;entryY=1;entryDx=0;entryDy=0;" parent="WIyWlLk6GJQsqaUBKTNV-1" source="_w8EJULEX6LvG8ccInfv-92" target="fRZr1uh6GntFFwG8jn4M-32" edge="1">
          <mxGeometry relative="1" as="geometry">
            <mxPoint x="40" y="2860" as="targetPoint" />
            <Array as="points">
              <mxPoint x="289" y="3130" />
              <mxPoint x="50" y="3130" />
            </Array>
          </mxGeometry>
        </mxCell>
        <mxCell id="_w8EJULEX6LvG8ccInfv-92" value="outfile &amp;lt;&amp;lt; &quot;, &quot;" style="rounded=0;whiteSpace=wrap;html=1;" parent="WIyWlLk6GJQsqaUBKTNV-1" vertex="1">
          <mxGeometry x="229" y="3009" width="120" height="60" as="geometry" />
        </mxCell>
        <mxCell id="fRZr1uh6GntFFwG8jn4M-31" value="" style="edgeStyle=orthogonalEdgeStyle;rounded=0;orthogonalLoop=1;jettySize=auto;html=1;exitX=0.5;exitY=1;exitDx=0;exitDy=0;" parent="WIyWlLk6GJQsqaUBKTNV-1" source="_w8EJULEX6LvG8ccInfv-95" target="fRZr1uh6GntFFwG8jn4M-27" edge="1">
          <mxGeometry relative="1" as="geometry">
            <mxPoint x="426.5" y="2770" as="sourcePoint" />
          </mxGeometry>
        </mxCell>
        <mxCell id="fRZr1uh6GntFFwG8jn4M-38" value="Tak" style="edgeLabel;html=1;align=center;verticalAlign=middle;resizable=0;points=[];" parent="fRZr1uh6GntFFwG8jn4M-31" vertex="1" connectable="0">
          <mxGeometry x="0.3867" relative="1" as="geometry">
            <mxPoint y="-11" as="offset" />
          </mxGeometry>
        </mxCell>
        <mxCell id="Gt7xZdfMWurpRS6GHfpo-0" value="" style="edgeStyle=orthogonalEdgeStyle;rounded=0;orthogonalLoop=1;jettySize=auto;html=1;" parent="WIyWlLk6GJQsqaUBKTNV-1" source="_w8EJULEX6LvG8ccInfv-95" target="fRZr1uh6GntFFwG8jn4M-41" edge="1">
          <mxGeometry relative="1" as="geometry" />
        </mxCell>
        <mxCell id="Gt7xZdfMWurpRS6GHfpo-1" value="Nie" style="edgeLabel;html=1;align=center;verticalAlign=middle;resizable=0;points=[];" parent="Gt7xZdfMWurpRS6GHfpo-0" vertex="1" connectable="0">
          <mxGeometry x="-0.2159" relative="1" as="geometry">
            <mxPoint as="offset" />
          </mxGeometry>
        </mxCell>
        <mxCell id="_w8EJULEX6LvG8ccInfv-95" value="Czy i &amp;lt; 20 &amp;amp;&amp;amp;&amp;nbsp;&lt;div&gt;!person.hobbies[i].empty()?&lt;/div&gt;" style="rhombus;whiteSpace=wrap;html=1;" parent="WIyWlLk6GJQsqaUBKTNV-1" vertex="1">
          <mxGeometry x="174" y="2620" width="244" height="80" as="geometry" />
        </mxCell>
        <mxCell id="_w8EJULEX6LvG8ccInfv-104" value="" style="edgeStyle=orthogonalEdgeStyle;rounded=0;orthogonalLoop=1;jettySize=auto;html=1;" parent="WIyWlLk6GJQsqaUBKTNV-1" target="_w8EJULEX6LvG8ccInfv-37" edge="1">
          <mxGeometry relative="1" as="geometry">
            <mxPoint x="553" y="2799" as="sourcePoint" />
          </mxGeometry>
        </mxCell>
        <mxCell id="_w8EJULEX6LvG8ccInfv-105" value="Koniec" style="ellipse;whiteSpace=wrap;html=1;" parent="WIyWlLk6GJQsqaUBKTNV-1" vertex="1">
          <mxGeometry x="493" y="2530" width="120" height="80" as="geometry" />
        </mxCell>
        <mxCell id="fRZr1uh6GntFFwG8jn4M-25" value="&lt;div&gt;outfile &amp;lt;&amp;lt; person.id &amp;lt;&amp;lt; &quot;;&quot;&lt;/div&gt;&lt;div&gt;&amp;lt;&amp;lt; person.name &amp;lt;&amp;lt; &quot;;&quot;&lt;/div&gt;&lt;div&gt;&amp;lt;&amp;lt; person.surname &amp;lt;&amp;lt; &quot;;&quot;&lt;/div&gt;&lt;div&gt;&amp;lt;&amp;lt; person.address &amp;lt;&amp;lt; &quot;;&quot;&lt;/div&gt;&lt;div&gt;&amp;lt;&amp;lt; person.email &amp;lt;&amp;lt; &quot;;[&quot;&lt;/div&gt;" style="shape=parallelogram;perimeter=parallelogramPerimeter;whiteSpace=wrap;html=1;fixedSize=1;" parent="WIyWlLk6GJQsqaUBKTNV-1" vertex="1">
          <mxGeometry x="181.5" y="2400" width="233" height="100" as="geometry" />
        </mxCell>
        <mxCell id="fRZr1uh6GntFFwG8jn4M-29" value="" style="edgeStyle=orthogonalEdgeStyle;rounded=0;orthogonalLoop=1;jettySize=auto;html=1;" parent="WIyWlLk6GJQsqaUBKTNV-1" target="fRZr1uh6GntFFwG8jn4M-28" edge="1">
          <mxGeometry relative="1" as="geometry">
            <mxPoint x="296" y="2500" as="sourcePoint" />
          </mxGeometry>
        </mxCell>
        <mxCell id="fRZr1uh6GntFFwG8jn4M-27" value="outfile &amp;lt;&amp;lt; person.hobbies[i]" style="shape=parallelogram;perimeter=parallelogramPerimeter;whiteSpace=wrap;html=1;fixedSize=1;" parent="WIyWlLk6GJQsqaUBKTNV-1" vertex="1">
          <mxGeometry x="236" y="2739" width="120" height="60" as="geometry" />
        </mxCell>
        <mxCell id="fRZr1uh6GntFFwG8jn4M-30" value="" style="edgeStyle=orthogonalEdgeStyle;rounded=0;orthogonalLoop=1;jettySize=auto;html=1;" parent="WIyWlLk6GJQsqaUBKTNV-1" source="fRZr1uh6GntFFwG8jn4M-28" target="_w8EJULEX6LvG8ccInfv-95" edge="1">
          <mxGeometry relative="1" as="geometry" />
        </mxCell>
        <mxCell id="fRZr1uh6GntFFwG8jn4M-28" value="i = 0" style="rounded=0;whiteSpace=wrap;html=1;" parent="WIyWlLk6GJQsqaUBKTNV-1" vertex="1">
          <mxGeometry x="245" y="2540" width="102" height="40" as="geometry" />
        </mxCell>
        <mxCell id="fRZr1uh6GntFFwG8jn4M-36" style="edgeStyle=orthogonalEdgeStyle;rounded=0;orthogonalLoop=1;jettySize=auto;html=1;exitX=0.413;exitY=0.05;exitDx=0;exitDy=0;exitPerimeter=0;" parent="WIyWlLk6GJQsqaUBKTNV-1" source="fRZr1uh6GntFFwG8jn4M-32" edge="1">
          <mxGeometry relative="1" as="geometry">
            <mxPoint x="297" y="2598" as="targetPoint" />
            <mxPoint x="27" y="2718" as="sourcePoint" />
            <Array as="points">
              <mxPoint x="50" y="2642" />
              <mxPoint x="50" y="2598" />
            </Array>
          </mxGeometry>
        </mxCell>
        <mxCell id="fRZr1uh6GntFFwG8jn4M-32" value="++i" style="rounded=0;whiteSpace=wrap;html=1;" parent="WIyWlLk6GJQsqaUBKTNV-1" vertex="1">
          <mxGeometry x="10" y="2640" width="80" height="40" as="geometry" />
        </mxCell>
        <mxCell id="fRZr1uh6GntFFwG8jn4M-41" value="outfile &amp;lt;&amp;lt; &quot;]&quot; &amp;lt;&amp;lt; endl" style="shape=parallelogram;perimeter=parallelogramPerimeter;whiteSpace=wrap;html=1;fixedSize=1;" parent="WIyWlLk6GJQsqaUBKTNV-1" vertex="1">
          <mxGeometry x="471" y="2739" width="164" height="60" as="geometry" />
        </mxCell>
        <mxCell id="fRZr1uh6GntFFwG8jn4M-42" value="outfile.close()" style="shape=process;whiteSpace=wrap;html=1;backgroundOutline=1;" parent="WIyWlLk6GJQsqaUBKTNV-1" vertex="1">
          <mxGeometry x="493" y="2919" width="120" height="60" as="geometry" />
        </mxCell>
        <mxCell id="fRZr1uh6GntFFwG8jn4M-43" value="delete[] person.hobbies" style="shape=process;whiteSpace=wrap;html=1;backgroundOutline=1;" parent="WIyWlLk6GJQsqaUBKTNV-1" vertex="1">
          <mxGeometry x="493" y="3009" width="120" height="60" as="geometry" />
        </mxCell>
        <mxCell id="NUZIofhIhQPIZliGserU-0" value="Person person = generatePerson()" style="shape=process;whiteSpace=wrap;html=1;backgroundOutline=1;" vertex="1" parent="WIyWlLk6GJQsqaUBKTNV-1">
          <mxGeometry x="171.5" y="2100" width="253" height="60" as="geometry" />
        </mxCell>
        <mxCell id="NUZIofhIhQPIZliGserU-2" value="" style="endArrow=classic;html=1;rounded=0;exitX=0;exitY=0.5;exitDx=0;exitDy=0;" edge="1" parent="WIyWlLk6GJQsqaUBKTNV-1" source="_w8EJULEX6LvG8ccInfv-90">
          <mxGeometry width="50" height="50" relative="1" as="geometry">
            <mxPoint x="160" y="2740" as="sourcePoint" />
            <mxPoint x="50" y="2890" as="targetPoint" />
          </mxGeometry>
        </mxCell>
        <mxCell id="NUZIofhIhQPIZliGserU-3" value="Nie" style="edgeLabel;html=1;align=center;verticalAlign=middle;resizable=0;points=[];" vertex="1" connectable="0" parent="NUZIofhIhQPIZliGserU-2">
          <mxGeometry x="-0.4959" y="3" relative="1" as="geometry">
            <mxPoint y="-3" as="offset" />
          </mxGeometry>
        </mxCell>
      </root>
    </mxGraphModel>
  </diagram>
</mxfile>
